<svg width="17" height="6" viewBox="0 0 17 6" fill="none" xmlns="http://www.w3.org/2000/svg">
<rect y="0.0856934" width="17" height="5.82857" rx="0.971429" fill="white"/>
<path d="M3.57416 3.90267C3.12318 3.90267 2.69706 3.64768 2.4918 3.23716L2.04757 2.34995C1.84484 1.94491 1.39386 1.72827 0.950883 1.82268C0.871645 1.83954 0.794515 1.78896 0.777656 1.71015C0.760797 1.63133 0.811374 1.55378 0.89019 1.53692C1.4634 1.41511 2.04672 1.69539 2.30888 2.21929L2.75312 3.1065C2.93267 3.46475 3.33349 3.66664 3.72842 3.59752L5.58292 3.24221C5.66215 3.22704 5.73844 3.27888 5.75362 3.35812C5.76879 3.43736 5.71695 3.51365 5.63771 3.52882L3.78068 3.88455C3.71156 3.89677 3.64286 3.90267 3.57416 3.90267Z" fill="black"/>
<path d="M3.57416 3.90267C3.12318 3.90267 2.69706 3.64768 2.4918 3.23716L2.04757 2.34995C1.84484 1.94491 1.39386 1.72827 0.950883 1.82268C0.871645 1.83954 0.794515 1.78896 0.777656 1.71015C0.760797 1.63133 0.811374 1.55378 0.89019 1.53692C1.4634 1.41511 2.04672 1.69539 2.30888 2.21929L2.75312 3.1065C2.93267 3.46475 3.33349 3.66664 3.72842 3.59752L5.58292 3.24221C5.66215 3.22704 5.73844 3.27888 5.75362 3.35812C5.76879 3.43736 5.71695 3.51365 5.63771 3.52882L3.78068 3.88455C3.71156 3.89677 3.64286 3.90267 3.57416 3.90267Z" fill="black" fill-opacity="0.2"/>
<path d="M3.57416 3.90267C3.12318 3.90267 2.69706 3.64768 2.4918 3.23716L2.04757 2.34995C1.84484 1.94491 1.39386 1.72827 0.950883 1.82268C0.871645 1.83954 0.794515 1.78896 0.777656 1.71015C0.760797 1.63133 0.811374 1.55378 0.89019 1.53692C1.4634 1.41511 2.04672 1.69539 2.30888 2.21929L2.75312 3.1065C2.93267 3.46475 3.33349 3.66664 3.72842 3.59752L5.58292 3.24221C5.66215 3.22704 5.73844 3.27888 5.75362 3.35812C5.76879 3.43736 5.71695 3.51365 5.63771 3.52882L3.78068 3.88455C3.71156 3.89677 3.64286 3.90267 3.57416 3.90267Z" fill="black" fill-opacity="0.2"/>
<path d="M3.57416 3.90267C3.12318 3.90267 2.69706 3.64768 2.4918 3.23716L2.04757 2.34995C1.84484 1.94491 1.39386 1.72827 0.950883 1.82268C0.871645 1.83954 0.794515 1.78896 0.777656 1.71015C0.760797 1.63133 0.811374 1.55378 0.89019 1.53692C1.4634 1.41511 2.04672 1.69539 2.30888 2.21929L2.75312 3.1065C2.93267 3.46475 3.33349 3.66664 3.72842 3.59752L5.58292 3.24221C5.66215 3.22704 5.73844 3.27888 5.75362 3.35812C5.76879 3.43736 5.71695 3.51365 5.63771 3.52882L3.78068 3.88455C3.71156 3.89677 3.64286 3.90267 3.57416 3.90267Z" fill="black" fill-opacity="0.2"/>
<path d="M3.9598 4.61774C4.0946 4.48294 4.0946 4.26438 3.9598 4.12957C3.82499 3.99477 3.60643 3.99477 3.47163 4.12957C3.33682 4.26438 3.33682 4.48294 3.47163 4.61774C3.60643 4.75255 3.82499 4.75255 3.9598 4.61774Z" fill="black"/>
<path d="M3.9598 4.61774C4.0946 4.48294 4.0946 4.26438 3.9598 4.12957C3.82499 3.99477 3.60643 3.99477 3.47163 4.12957C3.33682 4.26438 3.33682 4.48294 3.47163 4.61774C3.60643 4.75255 3.82499 4.75255 3.9598 4.61774Z" fill="black" fill-opacity="0.2"/>
<path d="M3.9598 4.61774C4.0946 4.48294 4.0946 4.26438 3.9598 4.12957C3.82499 3.99477 3.60643 3.99477 3.47163 4.12957C3.33682 4.26438 3.33682 4.48294 3.47163 4.61774C3.60643 4.75255 3.82499 4.75255 3.9598 4.61774Z" fill="black" fill-opacity="0.2"/>
<path d="M3.9598 4.61774C4.0946 4.48294 4.0946 4.26438 3.9598 4.12957C3.82499 3.99477 3.60643 3.99477 3.47163 4.12957C3.33682 4.26438 3.33682 4.48294 3.47163 4.61774C3.60643 4.75255 3.82499 4.75255 3.9598 4.61774Z" fill="black" fill-opacity="0.2"/>
<path d="M5.33675 4.34595C5.47155 4.21115 5.47155 3.99259 5.33675 3.85778C5.20194 3.72298 4.98338 3.72298 4.84858 3.85778C4.71377 3.99259 4.71377 4.21115 4.84858 4.34595C4.98338 4.48076 5.20194 4.48076 5.33675 4.34595Z" fill="black"/>
<path d="M5.33675 4.34595C5.47155 4.21115 5.47155 3.99259 5.33675 3.85778C5.20194 3.72298 4.98338 3.72298 4.84858 3.85778C4.71377 3.99259 4.71377 4.21115 4.84858 4.34595C4.98338 4.48076 5.20194 4.48076 5.33675 4.34595Z" fill="black" fill-opacity="0.2"/>
<path d="M5.33675 4.34595C5.47155 4.21115 5.47155 3.99259 5.33675 3.85778C5.20194 3.72298 4.98338 3.72298 4.84858 3.85778C4.71377 3.99259 4.71377 4.21115 4.84858 4.34595C4.98338 4.48076 5.20194 4.48076 5.33675 4.34595Z" fill="black" fill-opacity="0.2"/>
<path d="M5.33675 4.34595C5.47155 4.21115 5.47155 3.99259 5.33675 3.85778C5.20194 3.72298 4.98338 3.72298 4.84858 3.85778C4.71377 3.99259 4.71377 4.21115 4.84858 4.34595C4.98338 4.48076 5.20194 4.48076 5.33675 4.34595Z" fill="black" fill-opacity="0.2"/>
<path d="M3.11915 3.1859C4.41013 2.60848 4.81391 1.70778 4.93782 1.14722C4.84931 1.13331 4.75616 1.13457 4.6626 1.15565L2.28125 1.69514L2.814 2.80952C2.88649 2.96126 2.9927 3.08812 3.11957 3.1859H3.11915Z" fill="black"/>
<path d="M3.11915 3.1859C4.41013 2.60848 4.81391 1.70778 4.93782 1.14722C4.84931 1.13331 4.75616 1.13457 4.6626 1.15565L2.28125 1.69514L2.814 2.80952C2.88649 2.96126 2.9927 3.08812 3.11957 3.1859H3.11915Z" fill="black" fill-opacity="0.2"/>
<path d="M3.11915 3.1859C4.41013 2.60848 4.81391 1.70778 4.93782 1.14722C4.84931 1.13331 4.75616 1.13457 4.6626 1.15565L2.28125 1.69514L2.814 2.80952C2.88649 2.96126 2.9927 3.08812 3.11957 3.1859H3.11915Z" fill="black" fill-opacity="0.2"/>
<path d="M3.11915 3.1859C4.41013 2.60848 4.81391 1.70778 4.93782 1.14722C4.84931 1.13331 4.75616 1.13457 4.6626 1.15565L2.28125 1.69514L2.814 2.80952C2.88649 2.96126 2.9927 3.08812 3.11957 3.1859H3.11915Z" fill="black" fill-opacity="0.2"/>
<path d="M5.55566 1.8247C5.53501 1.49342 5.29941 1.23464 5.00142 1.16003C4.96096 2.60486 4.30261 3.17849 3.94141 3.38543C3.94984 3.38375 3.95827 3.3829 3.96712 3.38122L5.63195 3.03476L5.55608 1.8247H5.55566Z" fill="black"/>
<path d="M5.55566 1.8247C5.53501 1.49342 5.29941 1.23464 5.00142 1.16003C4.96096 2.60486 4.30261 3.17849 3.94141 3.38543C3.94984 3.38375 3.95827 3.3829 3.96712 3.38122L5.63195 3.03476L5.55608 1.8247H5.55566Z" fill="black" fill-opacity="0.2"/>
<path d="M5.55566 1.8247C5.53501 1.49342 5.29941 1.23464 5.00142 1.16003C4.96096 2.60486 4.30261 3.17849 3.94141 3.38543C3.94984 3.38375 3.95827 3.3829 3.96712 3.38122L5.63195 3.03476L5.55608 1.8247H5.55566Z" fill="black" fill-opacity="0.2"/>
<path d="M5.55566 1.8247C5.53501 1.49342 5.29941 1.23464 5.00142 1.16003C4.96096 2.60486 4.30261 3.17849 3.94141 3.38543C3.94984 3.38375 3.95827 3.3829 3.96712 3.38122L5.63195 3.03476L5.55608 1.8247H5.55566Z" fill="black" fill-opacity="0.2"/>
<path d="M6.43972 4V2.36764H6.80901L6.84005 2.57246C6.8897 2.50005 6.95591 2.44212 7.03866 2.39868C7.12142 2.35316 7.21348 2.3304 7.31486 2.3304C7.38934 2.3304 7.45658 2.34075 7.51658 2.36144C7.57864 2.38006 7.63243 2.40902 7.67795 2.44833C7.72347 2.48557 7.76071 2.53315 7.78967 2.59108C7.84967 2.50833 7.92518 2.44419 8.01621 2.39868C8.10725 2.35316 8.20448 2.3304 8.30793 2.3304C8.44448 2.3304 8.5562 2.35626 8.64309 2.40799C8.72998 2.45971 8.79515 2.53419 8.8386 2.63143C8.88205 2.72866 8.90377 2.84659 8.90377 2.98521V4H8.48792V3.02555C8.48792 2.91383 8.4631 2.82901 8.41344 2.77108C8.36379 2.71315 8.29241 2.68418 8.19931 2.68418C8.13931 2.68418 8.08449 2.69867 8.03483 2.72763C7.98725 2.75659 7.94898 2.79901 7.92001 2.85487C7.89312 2.91073 7.87967 2.97693 7.87967 3.05348V4H7.46382V3.02555C7.46382 2.91383 7.43899 2.82901 7.38934 2.77108C7.33969 2.71315 7.26727 2.68418 7.17211 2.68418C7.11418 2.68418 7.06142 2.69867 7.01383 2.72763C6.96625 2.75659 6.92798 2.79901 6.89901 2.85487C6.87212 2.91073 6.85867 2.97693 6.85867 3.05348V4H6.43972ZM9.49345 4.68274L9.85344 3.82621H9.76034L9.14278 2.36764H9.59586L10.0365 3.43209L10.4338 2.36764H10.8806L9.93413 4.68274H9.49345ZM11.183 4V1.82766H12.6136V2.16592H11.6019V2.73384H12.5205V3.05969H11.6019V3.66174H12.6136V4H11.183ZM13.0165 4V1.82766H13.4354V2.68729L14.2206 1.82766H14.7389L13.9382 2.68729L14.7606 4H14.2516L13.6403 3.01314L13.4354 3.23037V4H13.0165ZM15.0773 4V1.82766H15.4963V4H15.0773Z" fill="black"/>
<path d="M6.43972 4V2.36764H6.80901L6.84005 2.57246C6.8897 2.50005 6.95591 2.44212 7.03866 2.39868C7.12142 2.35316 7.21348 2.3304 7.31486 2.3304C7.38934 2.3304 7.45658 2.34075 7.51658 2.36144C7.57864 2.38006 7.63243 2.40902 7.67795 2.44833C7.72347 2.48557 7.76071 2.53315 7.78967 2.59108C7.84967 2.50833 7.92518 2.44419 8.01621 2.39868C8.10725 2.35316 8.20448 2.3304 8.30793 2.3304C8.44448 2.3304 8.5562 2.35626 8.64309 2.40799C8.72998 2.45971 8.79515 2.53419 8.8386 2.63143C8.88205 2.72866 8.90377 2.84659 8.90377 2.98521V4H8.48792V3.02555C8.48792 2.91383 8.4631 2.82901 8.41344 2.77108C8.36379 2.71315 8.29241 2.68418 8.19931 2.68418C8.13931 2.68418 8.08449 2.69867 8.03483 2.72763C7.98725 2.75659 7.94898 2.79901 7.92001 2.85487C7.89312 2.91073 7.87967 2.97693 7.87967 3.05348V4H7.46382V3.02555C7.46382 2.91383 7.43899 2.82901 7.38934 2.77108C7.33969 2.71315 7.26727 2.68418 7.17211 2.68418C7.11418 2.68418 7.06142 2.69867 7.01383 2.72763C6.96625 2.75659 6.92798 2.79901 6.89901 2.85487C6.87212 2.91073 6.85867 2.97693 6.85867 3.05348V4H6.43972ZM9.49345 4.68274L9.85344 3.82621H9.76034L9.14278 2.36764H9.59586L10.0365 3.43209L10.4338 2.36764H10.8806L9.93413 4.68274H9.49345ZM11.183 4V1.82766H12.6136V2.16592H11.6019V2.73384H12.5205V3.05969H11.6019V3.66174H12.6136V4H11.183ZM13.0165 4V1.82766H13.4354V2.68729L14.2206 1.82766H14.7389L13.9382 2.68729L14.7606 4H14.2516L13.6403 3.01314L13.4354 3.23037V4H13.0165ZM15.0773 4V1.82766H15.4963V4H15.0773Z" fill="black" fill-opacity="0.2"/>
<path d="M6.43972 4V2.36764H6.80901L6.84005 2.57246C6.8897 2.50005 6.95591 2.44212 7.03866 2.39868C7.12142 2.35316 7.21348 2.3304 7.31486 2.3304C7.38934 2.3304 7.45658 2.34075 7.51658 2.36144C7.57864 2.38006 7.63243 2.40902 7.67795 2.44833C7.72347 2.48557 7.76071 2.53315 7.78967 2.59108C7.84967 2.50833 7.92518 2.44419 8.01621 2.39868C8.10725 2.35316 8.20448 2.3304 8.30793 2.3304C8.44448 2.3304 8.5562 2.35626 8.64309 2.40799C8.72998 2.45971 8.79515 2.53419 8.8386 2.63143C8.88205 2.72866 8.90377 2.84659 8.90377 2.98521V4H8.48792V3.02555C8.48792 2.91383 8.4631 2.82901 8.41344 2.77108C8.36379 2.71315 8.29241 2.68418 8.19931 2.68418C8.13931 2.68418 8.08449 2.69867 8.03483 2.72763C7.98725 2.75659 7.94898 2.79901 7.92001 2.85487C7.89312 2.91073 7.87967 2.97693 7.87967 3.05348V4H7.46382V3.02555C7.46382 2.91383 7.43899 2.82901 7.38934 2.77108C7.33969 2.71315 7.26727 2.68418 7.17211 2.68418C7.11418 2.68418 7.06142 2.69867 7.01383 2.72763C6.96625 2.75659 6.92798 2.79901 6.89901 2.85487C6.87212 2.91073 6.85867 2.97693 6.85867 3.05348V4H6.43972ZM9.49345 4.68274L9.85344 3.82621H9.76034L9.14278 2.36764H9.59586L10.0365 3.43209L10.4338 2.36764H10.8806L9.93413 4.68274H9.49345ZM11.183 4V1.82766H12.6136V2.16592H11.6019V2.73384H12.5205V3.05969H11.6019V3.66174H12.6136V4H11.183ZM13.0165 4V1.82766H13.4354V2.68729L14.2206 1.82766H14.7389L13.9382 2.68729L14.7606 4H14.2516L13.6403 3.01314L13.4354 3.23037V4H13.0165ZM15.0773 4V1.82766H15.4963V4H15.0773Z" fill="black" fill-opacity="0.2"/>
<path d="M6.43972 4V2.36764H6.80901L6.84005 2.57246C6.8897 2.50005 6.95591 2.44212 7.03866 2.39868C7.12142 2.35316 7.21348 2.3304 7.31486 2.3304C7.38934 2.3304 7.45658 2.34075 7.51658 2.36144C7.57864 2.38006 7.63243 2.40902 7.67795 2.44833C7.72347 2.48557 7.76071 2.53315 7.78967 2.59108C7.84967 2.50833 7.92518 2.44419 8.01621 2.39868C8.10725 2.35316 8.20448 2.3304 8.30793 2.3304C8.44448 2.3304 8.5562 2.35626 8.64309 2.40799C8.72998 2.45971 8.79515 2.53419 8.8386 2.63143C8.88205 2.72866 8.90377 2.84659 8.90377 2.98521V4H8.48792V3.02555C8.48792 2.91383 8.4631 2.82901 8.41344 2.77108C8.36379 2.71315 8.29241 2.68418 8.19931 2.68418C8.13931 2.68418 8.08449 2.69867 8.03483 2.72763C7.98725 2.75659 7.94898 2.79901 7.92001 2.85487C7.89312 2.91073 7.87967 2.97693 7.87967 3.05348V4H7.46382V3.02555C7.46382 2.91383 7.43899 2.82901 7.38934 2.77108C7.33969 2.71315 7.26727 2.68418 7.17211 2.68418C7.11418 2.68418 7.06142 2.69867 7.01383 2.72763C6.96625 2.75659 6.92798 2.79901 6.89901 2.85487C6.87212 2.91073 6.85867 2.97693 6.85867 3.05348V4H6.43972ZM9.49345 4.68274L9.85344 3.82621H9.76034L9.14278 2.36764H9.59586L10.0365 3.43209L10.4338 2.36764H10.8806L9.93413 4.68274H9.49345ZM11.183 4V1.82766H12.6136V2.16592H11.6019V2.73384H12.5205V3.05969H11.6019V3.66174H12.6136V4H11.183ZM13.0165 4V1.82766H13.4354V2.68729L14.2206 1.82766H14.7389L13.9382 2.68729L14.7606 4H14.2516L13.6403 3.01314L13.4354 3.23037V4H13.0165ZM15.0773 4V1.82766H15.4963V4H15.0773Z" fill="black" fill-opacity="0.2"/>
</svg>
